<svg width="32" height="58" viewBox="0 0 32 58" fill="none" xmlns="http://www.w3.org/2000/svg">
<path fill-rule="evenodd" clip-rule="evenodd" d="M30.891 6.391C31.0472 6.23084 31.1878 6.06288 31.3089 5.87538C31.4339 5.69179 31.5355 5.49647 31.6214 5.29335C31.7074 5.09023 31.7699 4.87538 31.8128 4.66054C31.8558 4.44179 31.8793 4.22304 31.8793 4.00038C31.8793 3.891 31.8714 3.77772 31.8636 3.66835C31.8519 3.55897 31.8363 3.4496 31.8128 3.34023C31.7933 3.23085 31.766 3.12539 31.7347 3.01992C31.6996 2.91445 31.6644 2.80898 31.6214 2.70742C31.5785 2.60586 31.5316 2.5043 31.4808 2.40664C31.4261 2.30899 31.3714 2.21523 31.3089 2.12539C31.2464 2.03164 31.1839 1.9418 31.1136 1.85586C31.0433 1.76992 30.9691 1.68789 30.891 1.60977C30.8128 1.53165 30.7308 1.45743 30.6449 1.38711C30.5589 1.3168 30.4691 1.2543 30.3753 1.1918C30.2855 1.1293 30.1918 1.07461 30.0941 1.01992C29.9964 0.969141 29.8949 0.922265 29.7933 0.879301C29.6918 0.836333 29.5863 0.801177 29.4808 0.766022C29.3753 0.734772 29.2699 0.707428 29.1605 0.687897C29.0511 0.664459 28.9418 0.648834 28.8324 0.637115C28.723 0.629302 28.6097 0.62149 28.5004 0.62149C28.2777 0.62149 28.059 0.644928 27.8402 0.687897C27.6254 0.730866 27.4144 0.793367 27.2074 0.879307C27.0043 0.965245 26.809 1.06681 26.6254 1.19181C26.4379 1.3129 26.2699 1.45353 26.1097 1.60978L1.10974 26.6098C1.03162 26.6879 0.957401 26.7699 0.887081 26.8559C0.816768 26.9418 0.754272 27.0316 0.691772 27.1254C0.629272 27.2152 0.57458 27.309 0.51989 27.4066C0.469109 27.5043 0.422236 27.6059 0.379272 27.7074C0.336304 27.809 0.301146 27.9145 0.265991 28.0199C0.234741 28.1254 0.207397 28.2309 0.187866 28.3402C0.164428 28.4496 0.148804 28.559 0.137085 28.6684C0.129272 28.7777 0.12146 28.891 0.12146 29.0004C0.12146 29.1098 0.129272 29.223 0.137085 29.3324C0.148804 29.4418 0.164428 29.5512 0.187866 29.6605C0.207397 29.7699 0.234741 29.8754 0.265991 29.9808C0.301147 30.0863 0.336305 30.1918 0.379272 30.2933C0.422241 30.3949 0.469114 30.4965 0.51989 30.5941C0.574578 30.6918 0.629272 30.7855 0.691772 30.8754C0.754272 30.9691 0.816771 31.059 0.887081 31.1449C0.957393 31.2308 1.03161 31.3129 1.10974 31.391L26.1097 56.391C26.2699 56.5472 26.4379 56.6879 26.6254 56.809C26.809 56.934 27.0043 57.0355 27.2074 57.1215C27.4144 57.2074 27.6254 57.2699 27.8402 57.3129C28.059 57.3558 28.2777 57.3793 28.5004 57.3793C28.6097 57.3793 28.723 57.3715 28.8324 57.3637C28.9418 57.3519 29.0511 57.3363 29.1605 57.3129C29.2699 57.2933 29.3753 57.266 29.4808 57.2347C29.5863 57.1996 29.6918 57.1644 29.7933 57.1215C29.8949 57.0785 29.9964 57.0316 30.0941 56.9809C30.1918 56.9262 30.2855 56.8715 30.3753 56.809C30.4691 56.7465 30.5589 56.684 30.6449 56.6137C30.7308 56.5434 30.8129 56.4691 30.891 56.391C30.9691 56.3129 31.0433 56.2308 31.1136 56.1449C31.1839 56.059 31.2464 55.9691 31.3089 55.8754C31.3714 55.7855 31.4261 55.6918 31.4808 55.5941C31.5316 55.4965 31.5785 55.3949 31.6214 55.2934C31.6644 55.1918 31.6996 55.0863 31.7347 54.9809C31.766 54.8754 31.7933 54.7699 31.8128 54.6605C31.8363 54.5512 31.8519 54.4418 31.8636 54.3324C31.8714 54.223 31.8793 54.1098 31.8793 54.0004C31.8793 53.7777 31.8558 53.559 31.8128 53.3402C31.7699 53.1254 31.7074 52.9145 31.6214 52.7074C31.5355 52.5043 31.4339 52.309 31.3089 52.1254C31.1878 51.9379 31.0472 51.7699 30.891 51.6098L8.27797 29.0008L30.891 6.391Z" fill="black"/>
</svg>
